<?xml version="1.0" encoding="UTF-8" standalone="no"?>
<!-- Created with Inkscape (http://www.inkscape.org/) -->

<svg
   width="511.99994"
   height="511.99994"
   viewBox="0 0 135.46664 135.46664"
   version="1.1"
   id="svg1"
   xmlns="http://www.w3.org/2000/svg"
   xmlns:svg="http://www.w3.org/2000/svg">
  <defs
     id="defs1" />
  <g
     id="layer1">
    <circle
       style="fill:#000000;stroke-width:7.01642;stroke-dasharray:none"
       id="path1"
       cx="67.73333"
       cy="67.73333"
       r="67.73333" />
    <path
       style="font-style:italic;font-weight:bold;font-size:62.8055px;font-family:Inter;-inkscape-font-specification:'Inter, Bold';fill:#ffffff;stroke-width:5.23393"
       d="m 54.668884,31.34269 h 9.545722 v 31.848811 q 0,4.416012 -1.984975,7.672263 -1.962672,3.256251 -5.464257,5.018195 -3.501585,1.761944 -8.140628,1.761944 -4.126071,0 -7.493838,-1.449701 -3.345463,-1.472003 -5.308135,-4.460617 -1.962672,-3.010917 -1.940369,-7.560748 h 9.612632 q 0.04461,1.806551 0.736002,3.10013 0.713699,1.271276 1.940369,1.962672 1.248973,0.669092 2.944007,0.669092 1.784248,0 3.010918,-0.758305 1.248973,-0.780608 1.895762,-2.274915 0.64679,-1.494307 0.64679,-3.68001 z m 15.768307,7.962202 V 31.34269 h 37.513799 v 7.962202 H 93.966951 V 77.019417 H 84.421229 V 39.304892 Z M 114.15122,31.34269 h 11.90985 l 12.57895,30.689051 h 0.53527 L 151.75423,31.34269 h 11.90985 v 45.676727 h -9.36729 V 47.289399 h -0.37916 L 142.097,76.796386 h -6.37869 L 123.89767,47.177883 h -0.37915 v 29.841534 h -9.3673 z"
       id="text1"
       aria-label="JTM"
       transform="matrix(0.80452704,0,-0.25260336,1.2429663,0,0)" />
  </g>
</svg>
